<?xml version="1.0" encoding="utf-8"?>
<!-- Generator: Adobe Illustrator 24.3.0, SVG Export Plug-In . SVG Version: 6.00 Build 0)  -->
<svg version="1.1" id="Lager_1" xmlns="http://www.w3.org/2000/svg" xmlns:xlink="http:s//www.w3.org/1999/xlink" x="0px" y="0px"
	 viewBox="0 0 848.31 735.63" style="enable-background:new 0 0 848.31 735.63;" xml:space="preserve">
<style type="text/css">
	.st0{fill:#009BB2;stroke:#009BB2;stroke-width:16;stroke-linecap:round;stroke-linejoin:round;stroke-miterlimit:10;}
	.st1{fill:none;stroke:#009BB2;stroke-width:16;stroke-linecap:round;stroke-linejoin:round;stroke-miterlimit:10;}
</style>
<circle class="st0" cx="424.55" cy="117.15" r="17.41"/>
<line class="st1" x1="424.55" y1="8" x2="424.55" y2="103.21"/>
<line class="st1" x1="424.55" y1="134.56" x2="424.55" y2="697.17"/>
<line class="st1" x1="309.07" y1="697.17" x2="540.03" y2="697.17"/>
<line class="st1" x1="212.72" y1="727.63" x2="636.38" y2="727.63"/>
<polygon class="st1" points="190.25,195.56 372.5,493.95 8,493.95 "/>
<path class="st1" d="M8,493.95c32.83,67.54,102.1,114.1,182.25,114.1s149.41-46.56,182.25-114.1"/>
<polygon class="st1" points="658.06,38.48 840.31,336.87 475.81,336.87 "/>
<path class="st1" d="M475.81,336.87c32.83,67.54,102.1,114.1,182.25,114.1s149.41-46.56,182.25-114.1"/>
<line class="st1" x1="434.59" y1="113.51" x2="658.06" y2="38.48"/>
<line class="st1" x1="190.25" y1="195.56" x2="411.1" y2="121.4"/>
<rect x="588.54" y="288.43" class="st1" width="132.74" height="23.61"/>
<rect x="117.19" y="356.01" class="st1" width="95.53" height="22.21"/>
<rect x="99.52" y="401.83" class="st1" width="117.66" height="20.76"/>
<rect x="150.91" y="401.83" class="st1" width="107.44" height="20.76"/>
<rect x="183.55" y="422.59" class="st1" width="107.44" height="20.76"/>
<rect x="120.28" y="422.59" class="st1" width="63.28" height="20.76"/>
<rect x="81.25" y="443.35" class="st1" width="90.78" height="20.76"/>
<rect x="171.79" y="443.35" class="st1" width="90.78" height="20.76"/>
<rect x="193.9" y="378.22" class="st1" width="78.99" height="23.61"/>
<rect x="107.92" y="378.22" class="st1" width="85.98" height="23.61"/>
<rect x="58.5" y="464.74" class="st1" width="132.74" height="23.61"/>
<rect x="190.25" y="464.74" class="st1" width="91.86" height="23.61"/>
<rect x="565" y="312.04" class="st1" width="179.82" height="23.61"/>
<rect x="58.5" y="464.74" class="st1" width="42.03" height="23.61"/>
<rect x="685.16" y="312.04" class="st1" width="59.65" height="23.61"/>
</svg>
