<?xml version="1.0" encoding="utf-8"?>
<!-- Generator: Adobe Illustrator 24.3.0, SVG Export Plug-In . SVG Version: 6.00 Build 0)  -->
<svg version="1.1" id="Lager_1" xmlns="http://www.w3.org/2000/svg" xmlns:xlink="http://www.w3.org/1999/xlink" x="0px" y="0px"
	 viewBox="0 0 606.27 739.93" style="enable-background:new 0 0 606.27 739.93;" xml:space="preserve">
<style type="text/css">
	.st0{fill-rule:evenodd;clip-rule:evenodd;fill:#009BB2;}
</style>
<g>
	<path class="st0" d="M606.27,455.57c0,78.32-31.93,149.41-83.43,200.92c-51.52,51.51-122.6,83.44-200.92,83.44h-37.56
		c-78.32,0-149.4-31.93-200.92-83.44C31.93,604.99,0,533.89,0,455.57V329.03c0-38.98,15.8-74.24,41.33-99.78
		c25.53-25.52,60.82-41.32,99.78-41.32c21.63,0,42.14,4.89,60.49,13.6c18.98,9.02,35.63,22.17,48.8,38.28v-0.01
		c2.14,2.51,5.23,5.84,8.39,8.88c2.45,2.35,4.85,4.48,6.73,5.79c5.39,3.76,11.41,6.75,17.87,8.79c3.63,1.14,7.4,1.97,11.28,2.46
		c-2.17-36.88-18.03-70.07-42.53-94.59c-26.45-26.45-62.98-42.82-103.33-42.82c-4.54,0-8.21-3.65-8.21-8.19
		c0-4.52,3.67-8.21,8.21-8.21c44.87,0,85.5,18.22,114.93,47.61c16.02,16.01,28.7,35.38,36.93,56.92l18.26-24.69
		c-5.95-45.6,6.67-89.54,32.13-123.99C377.14,32.47,416.67,7.13,463.45,0.1c0.42-0.07,0.82-0.1,1.22-0.1l0,0l0,0h0.22l0.24,0.01
		c4.01,0.21,7.27,3.34,7.7,7.32c6.92,46.65-5.68,91.79-31.72,127.01c-25.43,34.44-63.7,59.4-109.04,67.14l-25.37,34.33
		c2.37,9.69,3.85,19.71,4.41,29.99c4.59-0.57,9.09-1.61,13.38-3.09c5.88-2.01,11.35-4.82,16.26-8.24c1.89-1.32,4.28-3.45,6.73-5.79
		c3.16-3.04,6.25-6.37,8.39-8.88l0.07-0.09c13.14-16.05,29.78-29.18,48.72-38.18c18.35-8.71,38.88-13.6,60.49-13.6
		c38.96,0,74.24,15.8,99.78,41.32c25.53,25.53,41.32,60.82,41.32,99.78v126.54H606.27z M395.39,502.27
		c0.67-17.79-4.9-34.67-14.92-48.23s-24.52-23.85-41.73-28.46c-0.65,17.78,4.9,34.66,14.92,48.23
		C363.68,487.39,378.19,497.67,395.39,502.27L395.39,502.27z M393.61,444.31c-14.15-19.15-35.58-32.9-60.95-36.71
		c-0.41-0.06-0.82-0.1-1.21-0.1l0,0h-0.02h-0.22l-0.24,0.01c-4.01,0.23-7.26,3.33-7.7,7.29c-3.7,25.26,3.15,49.67,17.24,68.76
		c14.14,19.15,35.59,32.9,60.95,36.71c4.48,0.68,8.66-2.41,9.32-6.89l0.03-0.15C414.58,487.9,407.73,463.42,393.61,444.31
		L393.61,444.31z M195.44,513.22l0.02,0.15c0.68,4.47,4.86,7.57,9.34,6.89c25.37-3.81,46.8-17.56,60.95-36.71
		c14.09-19.08,20.93-43.5,17.22-68.76c-0.43-3.95-3.68-7.06-7.7-7.29l-0.24-0.01h-0.22l0,0l0,0c-0.41,0-0.8,0.04-1.22,0.1
		c-25.37,3.81-46.81,17.56-60.94,36.71C198.53,463.42,191.67,487.9,195.44,513.22L195.44,513.22z M225.81,454.04
		c-10.02,13.57-15.59,30.45-14.94,48.23c17.21-4.61,31.71-14.88,41.74-28.46c10.01-13.56,15.56-30.44,14.91-48.23
		C250.32,430.19,235.82,440.48,225.81,454.04L225.81,454.04z M195.44,513.22l-0.07-1.07C195.37,512.49,195.39,512.86,195.44,513.22
		L195.44,513.22z M458.29,30.62l-111.25,150.6c33.25-9.75,61.31-30.07,80.93-56.63C447.59,98.05,458.76,65.27,458.29,30.62
		L458.29,30.62z M333.87,171.5L445.13,20.9c-33.26,9.74-61.32,30.06-80.92,56.62C344.61,104.05,333.42,136.85,333.87,171.5
		L333.87,171.5z M511.22,644.9c48.54-48.54,78.64-115.54,78.64-189.33V329.03c0-34.44-13.96-65.62-36.53-88.18
		c-22.55-22.55-53.74-36.51-88.17-36.51c-19.18,0-37.32,4.31-53.51,11.99c-16.75,7.96-31.46,19.57-43.07,33.76l-0.28,0.36
		c-2.41,2.83-5.91,6.59-9.47,10.04c-2.92,2.8-5.99,5.47-8.72,7.38c-6.25,4.37-13.08,7.88-20.31,10.36
		c-7.03,2.41-14.53,3.9-22.35,4.3h-0.05c-1.64,0.1-3.02,0.14-4.12,0.14h-0.05h-0.04h-0.05c-8.53,0-16.83-1.32-24.6-3.77
		c-8.04-2.52-15.57-6.28-22.38-11.03c-2.72-1.91-5.79-4.58-8.7-7.38c-3.58-3.45-7.08-7.2-9.48-10.04v-0.01l-0.12-0.14
		c-11.63-14.29-26.41-25.95-43.24-33.96c-16.18-7.68-34.31-11.99-53.49-11.99c-34.44,0-65.62,13.96-88.17,36.51
		c-22.57,22.58-36.54,53.76-36.54,88.18v126.54c0,73.78,30.1,140.78,78.65,189.33c48.54,48.53,115.54,78.62,189.31,78.62h37.56
		C395.7,723.52,462.7,693.43,511.22,644.9z"/>
</g>
</svg>
