<?xml version="1.0" encoding="utf-8"?>
<!-- Generator: Adobe Illustrator 24.3.0, SVG Export Plug-In . SVG Version: 6.00 Build 0)  -->
<svg version="1.1" id="Layer_1" focusable="false" xmlns="http://www.w3.org/2000/svg" xmlns:xlink="http://www.w3.org/1999/xlink"
	 x="0px" y="0px" viewBox="0 0 512 512" style="enable-background:new 0 0 512 512;" xml:space="preserve">
<style type="text/css">
	.st0{fill:#FFFFFF;}
</style>
<path class="st0" d="M440,256h-16c-4.4,0-8,3.6-8,8v200c0,8.8-7.2,16-16,16H48c-8.8,0-16-7.2-16-16V112c0-8.8,7.2-16,16-16h200
	c4.4,0,8-3.6,8-8V72c0-4.4-3.6-8-8-8H48C21.5,64,0,85.5,0,112v352c0,26.5,21.5,48,48,48l0,0h352c26.5,0,48-21.5,48-48l0,0V264
	C448,259.6,444.4,256,440,256z M500,0L364,0.3c-6.6,0-12,5.4-12,12l0,0v10c0,6.6,5.4,12,12,12l90-0.3l0.7,0.7L131.5,357.9
	c-4.7,4.7-4.7,12.3,0,17l0,0l5.7,5.7c4.7,4.7,12.3,4.7,17,0l0,0L477.3,57.3L478,58l-0.3,90c0,6.6,5.4,12,12,12h10
	c6.6,0,12-5.4,12-12L512,12C512,5.4,506.6,0,500,0z"/>
</svg>
