<?xml version="1.0" encoding="utf-8"?>
<!-- Generator: Adobe Illustrator 24.3.0, SVG Export Plug-In . SVG Version: 6.00 Build 0)  -->
<svg version="1.1" xmlns="http://www.w3.org/2000/svg" xmlns:xlink="http://www.w3.org/1999/xlink" x="0px" y="0px"
	 viewBox="0 0 300 300" style="enable-background:new 0 0 300 300;" xml:space="preserve">
<style type="text/css">
	.st0{display:none;}
	.st1{display:inline;}
	.st2{fill:#FFFFFF;}
	.st3{fill:#009CB3;}
</style>
<g id="Layer_1" class="st0">
	<g class="st1">
		<g>
			<circle class="st2" cx="151.2" cy="149.7" r="144.7"/>
		</g>
		<path class="st3" d="M217,116c0.1,1.5,0.1,2.9,0.1,4.4c0,44.8-34.1,96.5-96.5,96.5c-19.2,0-37.1-5.6-52.1-15.2
			c2.7,0.3,5.4,0.4,8.2,0.4c15.9,0,30.5-5.4,42.1-14.5c-14.9-0.3-27.4-10.1-31.7-23.5c2.1,0.3,4.2,0.5,6.4,0.5c3,0,6.1-0.4,8.9-1.2
			c-15.5-3.2-27.2-16.8-27.2-33.3v-0.4c4.5,2.5,9.8,4.1,15.3,4.3c-9.1-6.1-15.1-16.5-15.1-28.2c0-6.3,1.7-12.1,4.6-17.1
			c16.7,20.6,41.8,34,69.9,35.5c-0.5-2.5-0.8-5.1-0.8-7.8c0-18.7,15.1-33.9,33.9-33.9c9.8,0,18.6,4.1,24.8,10.7
			c7.7-1.5,15-4.3,21.5-8.2c-2.5,7.9-7.9,14.5-14.9,18.7c6.8-0.7,13.4-2.6,19.5-5.3C229.4,105.1,223.6,111.1,217,116L217,116z"/>
	</g>
</g>
<g id="Layer_2">
	<g>
		<g>
			<circle class="st2" cx="148.8" cy="152" r="144.7"/>
		</g>
		<path class="st3" d="M187.2,162.3l4.6-29.9h-28.7v-19.4c0-8.2,4-16.1,16.8-16.1h13V71.5c0,0-11.8-2-23.1-2
			c-23.6,0-39,14.3-39,40.2v22.8h-26.2v29.9h26.2v72.2h32.3v-72.2H187.2z"/>
	</g>
</g>
</svg>
