<?xml version="1.0" encoding="utf-8"?>
<!-- Generator: Adobe Illustrator 24.3.0, SVG Export Plug-In . SVG Version: 6.00 Build 0)  -->
<svg version="1.1" id="Lager_1" xmlns="http://www.w3.org/2000/svg" xmlns:xlink="http://www.w3.org/1999/xlink" x="0px" y="0px"
	 viewBox="0 0 677.46 633.06" style="enable-background:new 0 0 677.46 633.06;" xml:space="preserve">
<style type="text/css">
	.st0{fill-rule:evenodd;clip-rule:evenodd;fill:#009BB2;}
</style>
<path class="st0" d="M324.03,420.37h-19.07v74.52h6.76c3.39,0,6.48-1.38,8.71-3.6l-0.02-0.01c2.23-2.22,3.61-5.31,3.61-8.69v-62.22
	H324.03z M335.76,99.5H138.7c-3.39,0-6.47,1.39-8.69,3.61l-0.33,0.31c-2.04,2.2-3.29,5.15-3.29,8.38v23.47v232.92v23.46
	c0,3.4,1.38,6.48,3.58,8.7c2.24,2.23,5.32,3.6,8.72,3.6h39.01h119.05h35.47h3.53c3.4,0,6.49-1.38,8.71-3.6h-0.02
	c2.23-2.24,3.6-5.32,3.6-8.7v-32.63V135.27V111.8c0-3.38-1.38-6.46-3.6-8.69C342.22,100.89,339.15,99.5,335.76,99.5L335.76,99.5z
	 M138.7,83.09h197.07c7.92,0,15.09,3.23,20.29,8.43c5.2,5.2,8.42,12.38,8.42,20.29v15.27h44.2c3.99,0,7.6-0.95,11.04-2.44
	c3.99-1.71,7.86-4.11,11.91-6.69L613.81,1.7c1.39-1.06,3.11-1.7,5-1.7c4.54,0,8.21,3.67,8.21,8.19v178.36h21.72
	c7.91,0,15.09,3.21,20.3,8.42c5.19,5.18,8.42,12.37,8.42,20.3v72.96c0,7.9-3.23,15.09-8.42,20.3l-0.02-0.03l-0.01,0.03
	c-5.21,5.18-12.38,8.4-20.27,8.4h-21.72v169.18h-0.03c0,1.52-0.41,3.04-1.29,4.4c-2.41,3.79-7.47,4.91-11.27,2.49l-182.8-116.65
	c-4.04-2.57-7.91-4.96-11.91-6.69c-3.44-1.48-7.05-2.42-11.04-2.42h-44.2v24.42c0,7.91-3.22,15.1-8.42,20.3l-0.02-0.02l-0.02,0.02
	c-4.15,4.14-9.57,7.04-15.6,8.03v62.6c0,7.9-3.22,15.1-8.4,20.28l-0.03-0.02l-0.02,0.02c-5.21,5.2-12.38,8.42-20.26,8.42h-6.76
	v72.55c0,13.55-5.54,25.85-14.44,34.77c-8.92,8.9-21.22,14.45-34.78,14.45h-37.02c-13.46,0-25.72-5.5-34.65-14.36l-0.09-0.09
	l-0.01-0.02l-0.03-0.02c-8.9-8.93-14.43-21.22-14.43-34.73V420.37h-30.81c-7.88,0-15.05-3.23-20.26-8.42l-0.05-0.03
	c-5.18-5.2-8.41-12.39-8.41-20.27v-15.26H79.15c-7.88,0-15.05-3.22-20.26-8.41l-0.02-0.04c-5.19-5.18-8.42-12.35-8.42-20.25v-30.77
	H28.71c-7.88,0-15.05-3.22-20.26-8.4l-0.03-0.05C3.22,303.29,0,296.11,0,288.22v-72.96c0-7.64,3.03-14.62,7.93-19.77
	c0.14-0.18,0.31-0.35,0.48-0.52c5.2-5.2,12.39-8.42,20.28-8.42h21.74v-30.76c0-7.64,3.02-14.6,7.93-19.76
	c0.15-0.18,0.32-0.35,0.49-0.54c5.2-5.19,12.37-8.42,20.28-8.42h30.82V111.8c0-7.64,3.04-14.6,7.93-19.76
	c0.16-0.18,0.31-0.36,0.48-0.53C123.6,86.32,130.79,83.09,138.7,83.09L138.7,83.09z M109.98,143.48H79.16
	c-3.37,0-6.46,1.39-8.68,3.6l-0.33,0.33c-2.02,2.18-3.27,5.14-3.27,8.38v38.95v113.99v38.97c0,3.38,1.38,6.47,3.58,8.7
	c2.23,2.22,5.32,3.6,8.7,3.6h30.82V143.48L109.98,143.48z M288.55,420.37H185.92v163.47c0,9.04,3.67,17.24,9.6,23.17l0.02,0.03
	c5.92,5.92,14.12,9.6,23.17,9.6h37.02c9.03,0,17.23-3.68,23.17-9.62c5.94-5.95,9.64-14.15,9.64-23.17v-80.74v-82.74H288.55z
	 M648.75,202.94h-21.72v97.58h21.72c3.4,0,6.49-1.38,8.71-3.6l-0.01-0.02c2.22-2.22,3.6-5.3,3.6-8.68v-72.96
	c0-3.39-1.38-6.48-3.6-8.71C655.21,204.32,652.14,202.94,648.75,202.94L648.75,202.94z M50.47,202.94H28.73
	c-3.38,0-6.46,1.38-8.67,3.61l-0.34,0.32c-2.03,2.2-3.29,5.16-3.29,8.39v72.96c0,3.38,1.39,6.48,3.6,8.7
	c2.23,2.23,5.32,3.6,8.71,3.6h21.74v-97.58H50.47z M610.62,23.11L440.4,131.71c-4.77,3.05-9.34,5.89-14.21,7.98
	c-5.37,2.31-11.04,3.79-17.52,3.79h-44.2v207.34h44.2c6.48,0,12.15,1.46,17.52,3.77c4.85,2.1,9.42,4.93,14.21,8l170.22,108.59
	V308.72V194.73V23.11z"/>
</svg>
