<?xml version="1.0" encoding="utf-8"?>
<!-- Generator: Adobe Illustrator 24.3.0, SVG Export Plug-In . SVG Version: 6.00 Build 0)  -->
<svg version="1.1" id="Lager_1" xmlns="http://www.w3.org/2000/svg" xmlns:xlink="http://www.w3.org/1999/xlink" x="0px" y="0px"
	 viewBox="0 0 654 608.3" style="enable-background:new 0 0 654 608.3;" xml:space="preserve">
<style type="text/css">
	.st0{fill-rule:evenodd;clip-rule:evenodd;fill:#009BB2;}
</style>
<path class="st0" d="M363,144.53c18.75,5.87,35.5,16.21,49.06,29.74c21.77,21.8,35.25,51.89,35.25,85.11c0,3.99-3.25,7.24-7.24,7.24
	h-226.2c-4.02,0-7.24-3.25-7.24-7.24c0-33.22,13.47-63.31,35.21-85.11c13.57-13.53,30.31-23.84,49.01-29.71
	c-6.72-3.6-12.86-8.15-18.21-13.51c-13.87-13.87-22.51-33.08-22.51-54.28s8.63-40.38,22.51-54.25C286.52,8.62,305.73,0,326.9,0
	c21.2,0,40.4,8.61,54.28,22.52c13.87,13.87,22.51,33.08,22.51,54.25c0,21.17-8.63,40.35-22.51,54.25l0,0v0.03
	C375.86,136.38,369.73,140.94,363,144.53L363,144.53z M319.75,288.16c0-4.01,3.24-7.24,7.24-7.24c4.02,0,7.27,3.23,7.27,7.24v48.81
	c14.21,1.65,26.98,8.15,36.59,17.75l0.03,0.03c11.22,11.23,18.2,26.76,18.2,43.91c0,13.02-4.02,25.1-10.89,35.07l39.2,39.53
	c2.82,2.82,2.79,7.41-0.02,10.23c-2.85,2.81-7.41,2.81-10.23-0.03l-38.47-38.81c-11.02,10-25.64,16.1-41.71,16.1
	c-15.41,0-29.57-5.67-40.43-15.02l-37.75,37.75c-2.84,2.81-7.44,2.81-10.25,0c-2.82-2.82-2.82-7.41,0-10.26l38.18-38.15
	c-7.44-10.26-11.82-22.86-11.82-36.42c0-17.18,6.95-32.68,18.17-43.94c9.66-9.63,22.43-16.1,36.7-17.75v-48.8H319.75z M291.49,430.4
	l0.06,0.05c0.2,0.2,0.37,0.4,0.54,0.6c0.39,0.43,0.79,0.85,1.2,1.26l0.03,0.03c8.6,8.57,20.48,13.9,33.64,13.9
	c13.17,0,25.05-5.33,33.68-13.93c8.57-8.6,13.93-20.52,13.93-33.65c0-13.17-5.33-25.07-13.93-33.69
	c-8.6-8.6-20.48-13.93-33.65-13.93h-0.03c-13.13,0-25.04,5.33-33.64,13.93c-8.61,8.62-13.94,20.52-13.94,33.69
	C279.37,410.85,283.94,422,291.49,430.4L291.49,430.4z M120.3,341.68c-21.2,0-40.41,8.6-54.28,22.48
	c-13.88,13.88-22.49,33.08-22.49,54.28s8.6,40.38,22.49,54.25c5.36,5.36,11.48,9.92,18.23,13.54c-18.75,5.87-35.5,16.18-49.01,29.71
	C13.45,537.71,0,567.8,0,601.06c0,3.98,3.22,7.24,7.24,7.24h226.2c4.02,0,7.24-3.26,7.24-7.24c0-33.26-13.48-63.35-35.24-85.12
	c-13.54-13.56-30.33-23.87-49.04-29.77c6.72-3.59,12.83-8.12,18.15-13.48v-0.02l0,0c13.9-13.88,22.48-33.06,22.48-54.23
	c0-21.2-8.57-40.4-22.48-54.28C160.67,350.28,141.47,341.68,120.3,341.68L120.3,341.68z M164.29,374.41
	c11.29,11.25,18.26,26.81,18.26,44.02c0,17.19-6.98,32.77-18.23,44.03h-0.03c-11.23,11.25-26.78,18.2-43.94,18.23h-0.05
	c-17.21,0-32.77-6.99-44.03-18.23c-11.28-11.26-18.26-26.84-18.26-44.03c0-17.21,6.99-32.77,18.26-44.02
	c11.26-11.29,26.82-18.23,44.03-18.23C137.48,356.18,153.06,363.13,164.29,374.41L164.29,374.41z M195.18,526.2
	c17.58,17.55,28.98,41.23,30.78,67.59H14.73c1.8-26.36,13.2-50.04,30.78-67.59c19.12-19.15,45.58-31,74.79-31.03h0.05
	C149.57,495.17,176.03,507.05,195.18,526.2L195.18,526.2z M533.59,341.68c-21.2,0-40.38,8.6-54.28,22.48
	c-13.87,13.88-22.48,33.08-22.48,54.28s8.6,40.38,22.48,54.25c5.36,5.36,11.49,9.92,18.21,13.54c-18.7,5.87-35.45,16.18-48.98,29.71
	c-21.77,21.77-35.25,51.86-35.25,85.12c0,3.98,3.25,7.24,7.24,7.24h226.23c3.99,0,7.24-3.26,7.24-7.24
	c0-33.26-13.47-63.35-35.24-85.12c-13.56-13.56-30.35-23.87-49.06-29.77c6.72-3.59,12.82-8.12,18.17-13.48l-0.03-0.02h0.03
	c13.88-13.88,22.49-33.06,22.49-54.23c0-21.2-8.6-40.4-22.49-54.28C574,350.28,554.76,341.68,533.59,341.68L533.59,341.68z
	 M577.62,374.41c11.28,11.25,18.26,26.81,18.26,44.02c0,17.19-6.99,32.77-18.23,44.03h-0.03c-11.23,11.25-26.82,18.2-43.96,18.23
	h-0.06c-17.21,0-32.77-6.99-44.05-18.23c-11.26-11.26-18.21-26.84-18.21-44.03c0-17.21,6.95-32.77,18.21-44.02
	c11.28-11.29,26.84-18.23,44.05-18.23C550.8,356.18,566.36,363.13,577.62,374.41L577.62,374.41z M608.5,526.2
	c17.56,17.55,28.98,41.23,30.75,67.59H428.03c1.77-26.36,13.19-50.04,30.77-67.59c19.12-19.15,45.59-31,74.79-31.03h0.06
	C562.85,495.17,589.36,507.05,608.5,526.2L608.5,526.2z M326.91,139.03h0.05c17.19,0,32.74-6.99,44-18.23v0.02
	c11.26-11.28,18.2-26.84,18.2-44.04c0-17.18-6.95-32.77-18.2-44.02c-11.29-11.26-26.84-18.24-44.05-18.24
	c-17.19,0-32.74,6.99-44.03,18.24c-11.26,11.28-18.2,26.84-18.2,44.02s6.95,32.77,18.2,44.03
	C294.17,132.05,309.72,139.03,326.91,139.03L326.91,139.03z M401.81,184.54c-19.15-19.15-45.61-31-74.86-31h-0.05
	c-29.21,0.02-55.65,11.85-74.79,31c-17.55,17.55-28.98,41.25-30.78,67.61h211.25C430.79,225.79,419.39,202.09,401.81,184.54z"/>
</svg>
